PathFileType	4	(X/Y/Z)	C:\Users\Basilio\Documents\Thesis Gigler\squatting_fais\c3dfiles\054\SLS_back_pre3\markers_experimental.trc
DataRate	CameraRate	NumFrames	NumMarkers	Units	OrigDataRate	OrigDataStartFrame	OrigNumFrames
200.000000	200.000000	4	61	mm	200.000000	0	1472
Frame#	Time	FHD			LBHD			RBHD			C7			T10			CLAV			LSHO			LUUPA			LMUPA			LDUPA			LLEP			LMEP			LRAD			LUL			LRFIN			RSHO			RUPA1			RMUPA			RDUPA			RLEP			RMEP			RRAD			RUL			RUFIN			LASI			RASI			USACR			LSACR			RSACR			LTHI1			LTHI2			LTHI3			LTHI4			LLFC			LMFC			LTIB1			LTIB2			LTIB3			LTIB4			LLMAL			LMMAL			LHEE			LMT1			LMT2			LMT5			RTHI			RTHI2			RTHI3			RTHI4			RLFC			RMFC			RTIB1			RTIB2			RTIB3			RTIB4			RLMAL			RMMAL			RHEE			RMT1			RMT2			RMT5			
		X1	Y1	Z1	X2	Y2	Z2	X3	Y3	Z3	X4	Y4	Z4	X5	Y5	Z5	X6	Y6	Z6	X7	Y7	Z7	X8	Y8	Z8	X9	Y9	Z9	X10	Y10	Z10	X11	Y11	Z11	X12	Y12	Z12	X13	Y13	Z13	X14	Y14	Z14	X15	Y15	Z15	X16	Y16	Z16	X17	Y17	Z17	X18	Y18	Z18	X19	Y19	Z19	X20	Y20	Z20	X21	Y21	Z21	X22	Y22	Z22	X23	Y23	Z23	X24	Y24	Z24	X25	Y25	Z25	X26	Y26	Z26	X27	Y27	Z27	X28	Y28	Z28	X29	Y29	Z29	X30	Y30	Z30	X31	Y31	Z31	X32	Y32	Z32	X33	Y33	Z33	X34	Y34	Z34	X35	Y35	Z35	X36	Y36	Z36	X37	Y37	Z37	X38	Y38	Z38	X39	Y39	Z39	X40	Y40	Z40	X41	Y41	Z41	X42	Y42	Z42	X43	Y43	Z43	X44	Y44	Z44	X45	Y45	Z45	X46	Y46	Z46	X47	Y47	Z47	X48	Y48	Z48	X49	Y49	Z49	X50	Y50	Z50	X51	Y51	Z51	X52	Y52	Z52	X53	Y53	Z53	X54	Y54	Z54	X55	Y55	Z55	X56	Y56	Z56	X57	Y57	Z57	X58	Y58	Z58	X59	Y59	Z59	X60	Y60	Z60	X61	Y61	Z61	

1	0	-25.2361068725586	1643.813232421875	-885.6948852539065	-178.9461975097657	1715.011474609375	-961.1551513671877	-192.8737487792969	1729.47900390625	-821.4711914062502	-334.1132507324219	1577.818725585938	-882.2290039062502	-431.2255249023439	1247.680908203125	-893.6730957031252	-210.0482482910157	1483.016723632813	-886.2166748046877	-275.1383972167969	1546.649536132813	-1048.382934570313	-349.1550292968751	1343.331787109375	-1176.515869140625	-303.9443664550782	1320.111206054688	-1175.511474609375	-343.0349426269532	1275.482788085938	-1190.15380859375	-329.8922424316407	1221.545043945313	-1197.0888671875	-367.6160278320313	1196.096801757813	-1127.766723632813	-211.1621856689454	983.543884277344	-1176.939453125	-256.2151489257813	965.4685668945315	-1238.2373046875	-172.8282318115235	905.6008911132815	-1208.433349609375	-273.3249206542969	1539.484497070313	-721.8502197265626	-331.9834594726563	1320.869506835938	-602.3044433593751	-291.0875549316407	1295.697509765625	-604.5258789062501	-332.2925720214844	1251.291625976563	-595.0118408203126	-329.7825622558594	1209.306274414063	-595.7476196289064	-356.4506835937501	1192.068969726563	-668.2686767578126	-206.7754516601563	955.8792724609377	-601.8885498046876	-270.0374145507813	955.742370605469	-552.3157348632814	-180.3262481689453	887.9168090820315	-564.4709472656251	-257.0807189941407	1061.5087890625	-1018.539672851563	-260.6940612792969	1060.668823242188	-765.8065185546876	-441.6648254394532	1153.47119140625	-893.9102783203127	-448.3646240234376	1122.432861328125	-922.861267089844	-447.243865966797	1120.495239257813	-866.0421142578127	-349.4603881835938	828.207458496094	-1114.132202148438	-317.5596923828126	748.6582031250001	-1114.033081054688	-270.2773132324219	751.9849243164064	-1105.546508789063	-347.3403320312501	696.2191162109376	-1099.217407226563	-347.9005432128907	541.5701293945314	-1084.385375976563	-317.4370117187501	530.1391601562501	-948.3894653320315	-298.3537902832032	378.0971984863282	-1043.77294921875	-346.5765380859376	333.4974975585938	-1104.16064453125	-308.7383422851563	331.5557556152344	-1078.975830078125	-309.1650695800782	251.4906311035157	-1050.559326171875	-359.9665222167969	112.2426681518555	-1098.831298828125	-329.6948852539063	131.3438568115235	-1007.281799316406	-428.6143493652345	101.2741012573242	-1042.73388671875	-216.9291076660157	57.89840316772462	-1020.198181152344	-208.6356658935547	56.78586578369142	-1069.622924804688	-260.6109924316407	39.86277008056641	-1120.923706054688	-354.7602233886719	760.7176513671876	-688.2961425781251	-317.5162048339844	705.2479248046876	-682.7185668945314	-283.5584716796876	706.1344604492189	-686.5802001953126	-342.7469482421876	628.3433227539064	-702.3792724609376	-349.8712463378907	536.3624267578126	-702.5076293945314	-292.1029052734376	535.0876464843751	-829.392761230469	-294.3437805175782	427.7403869628907	-703.7978515625001	-366.1670837402344	356.6948242187501	-669.6224975585939	-320.3227844238282	348.7915954589844	-677.2492675781251	-304.8191223144532	297.5168762207032	-698.7783203125001	-361.9630432128907	123.3428955078125	-671.7425537109376	-322.8134765625001	135.1201629638672	-758.1835937500001	-422.878875732422	99.20296478271487	-730.7347412109376	-203.9902038574219	54.20549392700197	-740.3098144531251	-202.7548522949219	54.29805374145509	-692.5844726562501	-252.8466491699219	40.04637527465821	-644.4121704101564	
2	0.005	-25.17101478576661	1643.782836914063	-884.3713378906252	-179.0821380615235	1715.020385742188	-959.5947265625002	-192.8814239501954	1729.344360351563	-819.9993896484377	-334.0922546386719	1577.765380859375	-880.9807739257815	-430.6035461425782	1247.488525390625	-892.9370117187502	-209.7642974853516	1483.037963867188	-884.9992675781252	-275.0995483398438	1546.913208007813	-1046.996704101563	-348.0020751953126	1343.337768554688	-1175.168334960938	-303.7012939453126	1320.480834960938	-1174.474487304688	-342.5528869628907	1275.885864257813	-1189.243774414063	-329.5758666992188	1221.782592773438	-1195.88134765625	-367.4324951171876	1196.255249023438	-1126.859008789063	-210.7549591064454	983.9822387695315	-1175.534423828125	-255.4262237548829	965.8598632812502	-1237.09375	-171.8976440429688	906.1018676757815	-1206.769775390625	-273.3517456054688	1539.259887695313	-720.5960693359376	-331.9414978027344	1320.601196289063	-601.1984252929689	-291.0660095214844	1295.398071289063	-603.3866577148439	-332.2573547363282	1250.974731445313	-593.8649291992189	-329.6530761718751	1208.987426757813	-594.6674804687501	-356.2270202636719	1191.68408203125	-667.2492675781251	-205.7805938720704	955.8330688476565	-600.9169311523439	-268.7805175781251	955.6165771484377	-551.4360351562501	-178.9325408935547	888.1274414062502	-563.4797363281251	-257.0558166503907	1061.533447265625	-1017.932861328125	-260.5514526367188	1060.602172851563	-765.2230834960939	-441.5196838378907	1153.435791015625	-893.351257324219	-448.276824951172	1122.44677734375	-922.2672119140627	-447.272918701172	1120.518188476563	-865.4170532226565	-349.6754760742188	828.3496093750002	-1113.551513671875	-317.7677612304688	748.8126220703126	-1113.537475585938	-270.6532287597657	752.0774536132814	-1105.122314453125	-347.6654052734376	696.3437500000001	-1098.883056640625	-347.9379272460938	541.4236450195314	-1084.09423828125	-317.3940429687501	530.1879272460939	-948.023376464844	-298.5704650878907	378.3154296875001	-1043.614868164063	-346.6720275878907	333.6479187011719	-1103.9794921875	-308.8339538574219	331.6396789550782	-1078.7998046875	-309.1716308593751	251.6679382324219	-1050.487548828125	-360.0518188476563	112.5384826660157	-1098.716064453125	-329.6501464843751	131.4059448242188	-1007.213928222656	-428.602752685547	101.3244247436524	-1042.68994140625	-217.2351531982422	57.92777252197267	-1020.308044433594	-209.1054229736329	56.88509368896486	-1069.880249023438	-260.6364746093751	39.87715911865235	-1120.928833007813	-354.7066345214844	760.6950683593751	-687.7087402343751	-317.4287109375001	705.2422485351564	-682.2534179687501	-283.6774902343751	705.9929199218751	-686.0225219726564	-342.8751525878907	628.1954345703126	-701.7401123046876	-349.8428649902344	536.3272094726564	-702.2013549804689	-292.1399230957032	535.1018066406251	-829.0325927734377	-294.3763427734376	427.7011108398439	-703.5050659179689	-366.1583251953126	356.6248779296876	-669.3953857421876	-320.3614807128907	348.6941528320313	-676.9578857421876	-304.8274536132813	297.4039001464844	-698.6185302734376	-361.9833068847657	123.2216415405274	-671.6757202148439	-322.8311767578126	135.1079406738282	-758.0663452148439	-422.8846740722657	99.16448211669925	-730.6698608398439	-203.9643707275391	54.21968078613283	-740.2379760742189	-202.7615814208985	54.24846267700197	-692.5337524414064	-252.8717193603516	39.99167251586915	-644.3484497070314	
3	0.01	-25.36560630798341	1643.75830078125	-882.8585205078127	-179.0284881591797	1715.131225585938	-957.9953613281252	-193.0531158447266	1729.283203125	-818.4843750000002	-334.1115722656251	1577.814331054688	-879.720886230469	-430.9972229003907	1247.593139648438	-892.047546386719	-210.4051361083985	1482.927612304688	-883.7276000976565	-275.0293884277344	1547.163696289063	-1045.80224609375	-348.1346130371094	1343.779296875	-1173.904052734375	-303.4927673339844	1320.832275390625	-1173.2119140625	-342.2941589355469	1276.247314453125	-1188.099487304688	-329.2183837890626	1222.070922851563	-1195.083618164063	-367.1335449218751	1196.53076171875	-1125.836059570313	-209.7469024658204	984.7249755859377	-1174.078125	-254.3601837158204	966.2727050781252	-1235.7626953125	-170.8779907226563	906.7688598632815	-1205.108642578125	-273.5194396972657	1539.023071289063	-719.3464355468751	-331.9982604980469	1320.316284179688	-600.1547851562501	-291.1521606445313	1295.156127929688	-602.1700439453126	-332.3404235839844	1250.65966796875	-592.7437744140626	-329.4159240722657	1208.644653320313	-593.5877075195314	-355.9689941406251	1191.370483398438	-666.1773681640626	-204.6296997070313	956.1182250976565	-599.8563232421876	-267.6215820312501	955.3689575195315	-550.7157592773439	-177.4232788085938	888.417419433594	-562.5163574218751	-256.9390869140626	1061.580200195313	-1017.351135253906	-260.2915344238282	1060.538208007813	-764.7000732421876	-441.3787841796876	1153.460571289063	-892.478698730469	-448.3047790527345	1122.485107421875	-921.452575683594	-447.1679992675782	1120.511352539063	-864.401062011719	-349.8567504882813	828.5053710937502	-1113.034301757813	-318.1111145019532	748.9511718750001	-1113.07568359375	-270.9676208496094	752.1970825195314	-1104.6572265625	-348.0430908203126	696.4677124023439	-1098.379272460938	-348.2518615722657	541.5564575195314	-1083.732666015625	-317.3930664062501	530.2222290039064	-947.680847167969	-298.7306823730469	378.4763183593751	-1043.466918945313	-346.8676757812501	333.7619018554688	-1103.80078125	-308.8125305175782	331.7855529785157	-1078.69091796875	-309.2580566406251	251.8150024414063	-1050.385498046875	-360.0416564941407	112.6488876342774	-1098.688598632813	-329.6168823242188	131.4554901123047	-1007.174072265625	-428.6118774414064	101.3606872558594	-1042.625610351563	-216.9292602539063	57.91912078857423	-1020.173461914063	-209.1289215087891	56.88825988769533	-1069.865600585938	-260.5900878906251	39.94121551513673	-1120.921264648438	-354.6325683593751	760.6500854492189	-687.3320922851564	-317.4223022460938	705.2072753906251	-681.7238159179689	-283.5823059082032	705.9664306640626	-685.5859375000001	-342.8409729003907	628.1694335937501	-701.2780761718751	-349.8147277832032	536.2170410156251	-701.8607177734376	-292.2820739746094	535.0604858398439	-828.5317382812502	-294.3651123046876	427.6676330566407	-703.2423706054689	-366.2042846679688	356.5327148437501	-669.1717529296876	-320.4804687500001	348.5483703613282	-676.6512451171876	-304.8365173339844	297.2886352539063	-698.3797607421876	-362.0222778320313	123.0816040039063	-671.5465087890626	-322.8689880371094	135.0717010498047	-757.9541015625001	-422.8923950195314	99.10612487792972	-730.6311035156251	-203.9835510253907	54.24205017089845	-740.1672973632814	-202.7404785156251	54.241756439209	-692.4842529296876	-252.9497985839844	39.8698959350586	-644.2379760742189	
4	0.015	-25.53698539733887	1643.742309570313	-881.3831787109377	-179.192626953125	1715.29638671875	-956.5572509765627	-193.0307159423829	1729.205932617188	-816.9924926757815	-334.1422424316407	1577.776245117188	-878.3259277343752	-430.611297607422	1247.364013671875	-891.3198242187502	-210.5837402343751	1482.943359375	-882.397888183594	-275.0379943847657	1547.38623046875	-1044.385131835938	-347.7674865722657	1344.10546875	-1172.974609375	-303.3996887207032	1321.14013671875	-1172.121215820313	-341.9777221679688	1276.648559570313	-1187.128784179688	-328.9266052246094	1222.389404296875	-1193.927734375	-366.9043273925782	1196.710693359375	-1124.958862304688	-208.6379547119141	985.315368652344	-1172.700927734375	-253.1954345703126	966.7805175781252	-1234.488525390625	-169.5687408447266	907.4455566406252	-1203.662109375	-273.9360351562501	1538.832885742188	-718.0220947265626	-332.1359252929688	1320.00390625	-599.0644531250001	-290.9984741210938	1294.891967773438	-601.1098632812501	-332.3978271484376	1250.378173828125	-591.5704345703126	-329.2933959960938	1208.383911132813	-592.4957275390626	-355.7359619140626	1191.09130859375	-665.0750732421876	-203.6800994873047	956.0964965820315	-598.4629516601564	-266.7244567871094	955.2920532226565	-549.8482666015626	-176.0868530273438	888.7203369140627	-561.4832763671876	-256.5298461914063	1062.066162109375	-1016.719116210938	-260.0993041992188	1060.481079101563	-764.1672973632814	-441.2380981445314	1153.495971679688	-891.600280761719	-448.2778930664064	1122.54638671875	-920.6168212890627	-447.0029907226564	1120.526000976563	-863.764343261719	-350.2185058593751	828.6328125000002	-1112.711303710938	-318.4451599121094	749.0531616210939	-1112.697387695313	-271.2416687011719	752.2855834960939	-1104.279418945313	-348.2388000488282	696.5780639648439	-1097.808227539063	-348.4943237304688	541.6719360351564	-1083.3447265625	-317.3836059570313	530.2999877929689	-947.400817871094	-298.9096069335938	378.4909057617188	-1043.2333984375	-347.7861328125001	334.2181091308594	-1105.054321289063	-308.8877563476563	331.8858642578126	-1078.562255859375	-309.2222900390626	252.0025787353516	-1050.318603515625	-359.9705200195313	112.8043899536133	-1098.658569335938	-329.6370849609376	131.5191040039063	-1007.150146484375	-428.6068115234376	101.4190826416016	-1042.585693359375	-216.9292602539063	57.9191246032715	-1020.173461914063	-209.1280822753907	56.91159439086915	-1069.880859375	-260.6091918945313	39.97315979003907	-1120.931274414063	-354.5319213867188	760.6322631835939	-686.7601928710939	-317.4076843261719	705.2095947265626	-681.2182006835939	-283.4918823242188	705.8918457031251	-685.1848754882814	-342.9014892578126	628.1781005859376	-700.8690185546876	-349.8863220214844	536.1397094726564	-701.4304199218751	-292.4492797851563	535.0508422851564	-828.170349121094	-294.3507385253907	427.6108398437501	-702.9750976562501	-366.2824401855469	356.4336242675782	-668.8617553710939	-320.5074768066407	348.3825988769532	-676.3317871093751	-305.0446166992188	297.1612243652344	-698.0061035156251	-362.0820617675782	122.9375762939453	-671.4199218750001	-322.8808288574219	135.0747375488282	-757.8536987304689	-422.9260864257814	99.0739669799805	-730.5848388671876	-203.4833068847657	54.00356292724611	-740.0737915039064	-202.5453643798829	54.26277542114259	-692.5678100585939	-252.9408721923829	39.77677536010743	-644.2026367187501	
